<svg id="card-back" xmlns="http://www.w3.org/2000/svg" viewBox="0 0 120 180">
  <title>card-back</title>
  <path d="M40,156.33V180a10,10,0,0,0,10,10H150a10,10,0,0,0,10-10V100.16C105.46,102.19,59.48,124.83,40,156.33Z" transform="translate(-40 -10)" fill="#fff" opacity="0.05"/>
  <polygon points="37.94 158.94 39 154 40.06 158.94 45 160 40.06 161.06 39 166 37.94 161.06 33 160 37.94 158.94" fill="#fff" opacity="0.5"/>
  <polygon points="16.88 149.88 19 140 21.12 149.88 31 152 21.12 154.12 19 164 16.88 154.12 7 152 16.88 149.88" fill="#fff" opacity="0.5"/>
  <polygon points="34.29 137.29 35 134 35.71 137.29 39 138 35.71 138.71 35 142 34.29 138.71 31 138 34.29 137.29" fill="#fff" opacity="0.5"/>
  <polygon points="82.06 21.06 81 26 79.94 21.06 75 20 79.94 18.94 81 14 82.06 18.94 87 20 82.06 21.06" fill="#fff" opacity="0.5"/>
  <polygon points="103.12 30.12 101 40 98.88 30.12 89 28 98.88 25.88 101 16 103.12 25.88 113 28 103.12 30.12" fill="#fff" opacity="0.5"/>
  <polygon points="85.71 42.71 85 46 84.29 42.71 81 42 84.29 41.29 85 38 85.71 41.29 89 42 85.71 42.71" fill="#fff" opacity="0.5"/>
  <circle cx="29.93" cy="96.2" r="7.93" fill="#fff" opacity="0.25"/>
  <circle cx="35" cy="102.03" r="3.25" fill="#fff" opacity="0.25"/>
  <circle cx="20.1" cy="82.17" r="2.1" fill="#fff" opacity="0.25"/>
  <circle cx="92.1" cy="86.17" r="3.83" fill="#fff" opacity="0.25"/>
  <circle cx="88.1" cy="80.17" r="1.83" fill="#fff" opacity="0.25"/>
  <g id="card-back-planet">
    <path id="card-back-planet-bottom-shadow" d="M98.86,115.66a17.53,17.53,0,0,0,13.91-6.84c-4.23-1.94-8.68-4-13.24-6.23-6.11-2.94-12-5.85-17.3-8.56a19.41,19.41,0,0,0-.92,5A17.57,17.57,0,0,0,98.86,115.66Z" transform="translate(-40 -10)" fill="#fff" opacity="0.25"/>
    <path id="card-back-planet-top-shadow" d="M99.79,80.55a19.46,19.46,0,0,0-15.26,8.7c-.21.32-.42.65-.61,1a19.39,19.39,0,0,0-1.3,2.69c5.14,2.63,11,5.55,17.4,8.62,4.76,2.29,9.27,4.4,13.43,6.32a17.53,17.53,0,0,0,1.52-2.79q.23-.53.42-1.07A17.57,17.57,0,0,0,99.79,80.55Z" transform="translate(-40 -10)" fill="#fff" opacity="0.25"/>
    <path id="card-back-planet-highlight" d="M130.47,111.85c-3.27-1.78-7-3.77-11.16-5.87a19.48,19.48,0,0,0-18.54-25.46l-1,0A17.57,17.57,0,0,1,115.41,104q-.19.54-.42,1.07a17.53,17.53,0,0,1-1.52,2.79c-4.17-1.91-8.67-4-13.43-6.32-6.39-3.08-12.26-6-17.4-8.62l-.48-.25C71.27,87.1,63.72,82.83,61.41,81.06c2.81.7,10.81,3.91,21.89,8.89l.63.28c.19-.33.4-.66.61-1l-.67-.3c-4-1.78-7.63-3.39-10.88-4.75-12.69-5.33-13-4.61-13.34-4S59,81.56,71.08,88.15c3.16,1.72,6.79,3.63,10.74,5.66l.41.21c5.31,2.71,11.18,5.62,17.3,8.56,4.56,2.19,9,4.29,13.24,6.23A17.56,17.56,0,0,1,81.32,99q0,.49,0,1A19.48,19.48,0,0,0,117,110.75c4.21,1.9,8.11,3.61,11.55,5.05,8.44,3.54,11.42,4.41,12.55,4.41.57,0,.68-.22.78-.43C142.21,119.15,142.55,118.44,130.47,111.85Zm-12.84-2.09a19.39,19.39,0,0,0,1.3-2.69c11.14,5.7,18.88,10.07,21.22,11.86C137.28,118.22,129,114.9,117.63,109.76Z" transform="translate(-40 -10)" fill="#fff" opacity="0.5"/>
  </g>
</svg>
