<?xml version="1.0" encoding="utf-8"?>
<svg version="1.1" xmlns="http://www.w3.org/2000/svg" viewBox="0 0 120 180" xml:space="preserve">
<path fill="#fff" opacity="0.25" d="M31.8,102c0,0.6,0.2,1.2,0.5,1.7c-0.7,0.2-1.5,0.4-2.3,0.4c-4.4,0-7.9-3.6-7.9-7.9c0-4.4,3.6-7.9,7.9-7.9
	s7.9,3.6,7.9,7.9c0,1.2-0.3,2.3-0.8,3.4c-0.6-0.5-1.3-0.8-2.1-0.8C33.2,98.8,31.8,100.2,31.8,102z M37.1,99.6
	c-0.9,2-2.7,3.5-4.8,4.2c0.6,0.9,1.6,1.5,2.7,1.5c1.8,0,3.3-1.5,3.3-3.3C38.3,101,37.8,100.2,37.1,99.6z M18,82.2
	c0,1.2,0.9,2.1,2.1,2.1s2.1-0.9,2.1-2.1s-0.9-2.1-2.1-2.1S18,81,18,82.2z M88.3,86.2c0,2.1,1.7,3.8,3.8,3.8s3.8-1.7,3.8-3.8
	s-1.7-3.8-3.8-3.8S88.3,84.1,88.3,86.2z M86.3,80.2c0,1,0.8,1.8,1.8,1.8s1.8-0.8,1.8-1.8s-0.8-1.8-1.8-1.8S86.3,79.2,86.3,80.2z
	 M41.3,89c0.1-1.7,0.4-3.4,0.9-5c5.3,2.7,11.2,5.6,17.3,8.6c4.6,2.2,9,4.3,13.2,6.2c-3.3,4.3-8.5,6.8-13.9,6.8
	C49.5,105.7,41.8,98.4,41.3,89z M64.8,71.6c9.1,3.3,13.9,13.3,10.6,22.5c-0.1,0.4-0.3,0.7-0.4,1.1c-0.4,1-0.9,1.9-1.5,2.8
	c-4.2-1.9-8.7-4-13.4-6.3c-6.4-3.1-12.3-6-17.4-8.6c0.4-0.9,0.8-1.8,1.3-2.7c0.2-0.3,0.4-0.7,0.6-1c3.4-5.2,9.1-8.4,15.3-8.7
	C61.5,70.6,63.2,71,64.8,71.6z"/>
<path fill="#fff" opacity="0.5" d="M32.3,103.8c-0.3-0.5-0.5-1.1-0.5-1.7c0-1.8,1.5-3.3,3.3-3.3c0.8,0,1.5,0.3,2.1,0.8
	C36.2,101.6,34.4,103.1,32.3,103.8z M33,160l4.9,1.1L39,166l1.1-4.9L45,160l-4.9-1.1L39,154l-1.1,4.9L33,160z M7,152l9.9,2.1L19,164
	l2.1-9.9L31,152l-9.9-2.1L19,140l-2.1,9.9L7,152z M31,138l3.3,0.7L35,142l0.7-3.3L39,138l-3.3-0.7L35,134l-0.7,3.3L31,138z M87,20
	l-4.9-1.1L81,14l-1.1,4.9L75,20l4.9,1.1L81,26l1.1-4.9L87,20z M113,28l-9.9-2.1L101,16l-2.1,9.9L89,28l9.9,2.1L101,40l2.1-9.9
	L113,28z M89,42l-3.3-0.7L85,38l-0.7,3.3L81,42l3.3,0.7L85,46l0.7-3.3L89,42z M101.9,109.8c-0.1,0.2-0.2,0.4-0.8,0.4
	c-1.1,0-4.1-0.9-12.6-4.4c-3.4-1.4-7.3-3.2-11.6-5.1c-3.6,5.4-9.6,8.6-16.1,8.7c-10.8,0-19.5-8.7-19.5-19.4c0-0.3,0-0.7,0-1
	c0.3,5.1,2.8,9.9,6.8,13c7.7,5.9,18.7,4.5,24.6-3.2c-4.2-1.9-8.7-4-13.2-6.2c-6.1-2.9-12-5.8-17.3-8.6l-0.4-0.2
	c-3.9-2-7.6-3.9-10.7-5.7c-12.1-6.6-11.8-7.4-11.4-8s0.7-1.3,13.3,4c3.3,1.4,6.9,3,10.9,4.8l0.7,0.3c-0.2,0.3-0.4,0.7-0.6,1
	l-0.6-0.3c-11.1-5-19.1-8.2-21.9-8.9c2.3,1.8,9.9,6,20.8,11.6l0.5,0.3c5.1,2.6,11,5.5,17.4,8.6c4.8,2.3,9.3,4.4,13.4,6.3
	c0.6-0.9,1.1-1.8,1.5-2.8c0.2-0.4,0.3-0.7,0.4-1.1c0.6-1.6,0.9-3.3,1-5c0.5-9.7-7-17.9-16.6-18.4h1c2,0,4,0.3,6,0.9
	C77,74.8,82.6,85.7,79.3,96c4.2,2.1,7.9,4.1,11.2,5.9C102.6,108.4,102.2,109.2,101.9,109.8z M100.2,108.9
	c-2.3-1.8-10.1-6.2-21.2-11.9c-0.4,0.9-0.8,1.8-1.3,2.7C89,104.9,97.3,108.2,100.2,108.9z"/>
</svg>
